<?xml version="1.0" encoding="utf-8"?>
<!-- Generator: Adobe Illustrator 16.0.3, SVG Export Plug-In . SVG Version: 6.00 Build 0)  -->
<!DOCTYPE svg PUBLIC "-//W3C//DTD SVG 1.1//EN" "http://www.w3.org/Graphics/SVG/1.1/DTD/svg11.dtd">
<svg version="1.1" id="Capa_1" xmlns="http://www.w3.org/2000/svg" xmlns:xlink="http://www.w3.org/1999/xlink" x="0px" y="0px"
	 width="800.58px" height="99.7px" viewBox="0 0 800.58 99.7" enable-background="new 0 0 800.58 99.7" xml:space="preserve">
<g>
	<g>
		
			<ellipse fill="none" stroke="#3374AA" stroke-width="4.2336" stroke-miterlimit="10" cx="667.862" cy="50.451" rx="46.134" ry="48.383"/>
		
			<ellipse fill="none" stroke="#3374AA" stroke-width="4.2336" stroke-miterlimit="10" cx="677.736" cy="50.089" rx="36.242" ry="37.315"/>
		
			<ellipse fill="none" stroke="#3374AA" stroke-width="4.2336" stroke-miterlimit="10" cx="666.95" cy="50.235" rx="25.456" ry="25.745"/>
		<path fill="none" stroke="#3374AA" stroke-width="4.2336" stroke-miterlimit="10" d="M692.406,49.947
			c0,8.464-6.664,15.33-14.881,15.33c-8.213,0-14.879-6.865-14.879-15.33c0-8.468,6.666-15.331,14.879-15.331
			C685.742,34.616,692.406,41.479,692.406,49.947z"/>
	</g>
	<path fill="#3374AA" d="M0,99.515V0.56h42.854c10.317,0,18.518,2.655,24.601,7.959c6.084,5.31,9.127,12.49,9.127,21.55
		c0,7.594-2.289,13.907-6.859,18.938c-3.253,3.569-7.363,6.176-12.332,7.825c-4.969,1.646-11.453,2.467-19.456,2.467h-8.969v40.216
		H0z M28.966,9.755v39.938h5.291c9.61,0,14.417-6.083,14.417-18.253c0-7.959-1.125-13.563-3.373-16.812
		c-2.248-3.246-6.106-4.873-11.573-4.873H28.966z"/>
	<path fill="#3374AA" d="M93.823,99.695V0.131h41.531c11.111,0,19.816,2.257,26.122,6.767c6.305,4.511,9.458,10.818,9.458,18.917
		c0,5.248-1.632,9.991-4.895,14.225c-2.029,2.576-4.145,4.534-6.349,5.868c-2.204,1.335-5.511,2.555-9.92,3.659
		c3.88,1.015,6.812,2.027,8.797,3.038c1.983,1.015,3.814,2.442,5.489,4.282c1.673,1.842,2.778,3.795,3.308,5.869
		c0.529,2.071,0.879,4.072,1.058,6.006c0.175,1.935,0.264,5.296,0.264,10.08c0,5.617,0.265,10.084,0.793,13.395
		c0.265,2.121,1.19,4.606,2.778,7.459h-29.761c-0.881-2.211-1.454-4.215-1.719-6.007c-0.263-1.797-0.396-4.579-0.396-8.356V82.57
		v-8.146v-2.21c0-8.099-0.854-13.532-2.561-16.294c-1.706-2.762-5.054-4.142-10.043-4.142h-5.518v47.917H93.823z M122.259,9.383
		V42.94h5.425c5.201,0,9.036-1.313,11.506-3.938c2.467-2.624,3.704-6.788,3.704-12.497c0-11.413-4.544-17.123-13.623-17.123H122.259
		z"/>
	<path fill="#3374AA" d="M188.97,49.665c0-16.468,4.012-28.883,12.035-37.25c3.705-3.962,8.202-7,13.492-9.113
		c5.291-2.113,11.064-3.171,17.327-3.171c12.785,0,23.146,4.095,31.083,12.284c4.143,4.315,7.163,9.51,9.06,15.586
		c1.896,6.077,2.843,13.651,2.843,22.718c0,15.587-3.969,27.61-11.903,36.062c-3.792,3.963-8.379,7.002-13.755,9.113
		c-5.38,2.111-11.156,3.172-17.327,3.172c-12.876,0-23.236-4.119-31.083-12.352C192.892,78.481,188.97,66.132,188.97,49.665z
		 M220.978,18.499c-0.707,3.347-1.19,7.308-1.454,11.886c-0.264,4.579-0.396,11.005-0.396,19.28c0,11.973,0.307,20.535,0.925,25.683
		c0.616,5.149,1.852,9.047,3.702,11.688c0.794,1.231,1.939,2.248,3.44,3.038c1.498,0.794,3.042,1.188,4.63,1.188
		c5.731,0,9.391-3.521,10.978-10.563c0.704-3.699,1.189-7.66,1.456-11.889c0.262-4.223,0.395-10.607,0.395-19.146
		c0-11.885-0.309-20.446-0.925-25.686c-0.618-5.235-1.851-9.22-3.703-11.95c-1.852-2.729-4.586-4.094-8.2-4.094
		C226.179,7.935,222.565,11.456,220.978,18.499z"/>
	<path fill="#3374AA" d="M283.058,0.424h29.64l18.523,47.413l17.713-47.411l11.375-0.002l-23.551,62.514v36.757h-28.701V63.07
		L283.058,0.424z"/>
	<path fill="#3374AA" d="M374.501,99.695V0.56h62.56v10.45h-33.727v29.563h28.305v9.897h-28.305v38.91h39.547v10.314H374.501z"/>
	<path fill="#3374AA" d="M532.205,30.521l-12.832,5.598l0.133-6.931c0-6.484-1.365-11.597-4.1-15.329
		c-2.732-3.731-6.568-5.598-11.506-5.598c-2.471,0-4.785,0.533-6.943,1.6c-2.162,1.067-3.947,2.533-5.357,4.4
		c-1.678,2.398-2.865,5.287-3.572,8.663c-1.498,7.821-2.248,17.062-2.248,27.725c0,10.752,0.75,19.592,2.248,26.526
		c1.146,4.443,3.219,7.91,6.217,10.396c2.996,2.489,6.746,3.732,11.244,3.732c5.994,0,10.648-1.887,13.953-5.667
		c3.307-3.776,4.961-9.083,4.961-15.927c0-1.775-0.354-5.242-1.059-10.396l12.83,3.187v7.044c0,9.475-3.232,16.894-9.691,22.252
		c-6.459,5.359-15.314,8.039-26.563,8.039c-14.24,0-25.18-4.129-32.826-12.382c-7.646-8.251-11.471-20.054-11.471-35.407
		c0-15.975,4.1-28.62,12.301-37.938c8.201-9.317,19.355-13.976,33.463-13.976c11.199,0,19.529,3.423,24.998,10.264
		c2.115,2.755,3.613,5.554,4.496,8.397C531.762,21.636,532.205,25.545,532.205,30.521z"/>
	<path fill="#3374AA" d="M543.363,10.641V0.131h77.51v10.51H596.4v89.193h-28.701V10.641H543.363z"/>
	<path fill="#3374AA" d="M729.024,66.242l13.891-2.798c-1.5,4.354-2.248,7.817-2.248,10.394c0,5.067,1.98,9.29,5.951,12.667
		c3.967,3.376,8.949,5.063,14.947,5.063c4.76,0,8.639-1.196,11.637-3.593c3-2.393,4.498-5.545,4.498-9.45
		c0-3.283-1.498-6.121-4.498-8.519c-1.502-1.242-2.953-2.195-4.363-2.861c-1.41-0.665-3.461-1.553-6.15-2.662
		c-2.689-1.108-4.43-1.842-5.225-2.195c-0.795-0.354-1.764-0.752-2.91-1.196c-1.148-0.444-2.205-0.843-3.174-1.198
		c-0.971-0.354-1.852-0.732-2.645-1.133c-0.795-0.4-1.943-1.045-3.441-1.931c-10.582-6.122-15.871-14.816-15.871-26.084
		c0-9.318,3.109-16.75,9.326-22.295c6.217-5.544,14.568-8.318,25.064-8.318c9.256,0,17.014,2.179,23.277,6.532
		c6.262,4.354,9.391,9.819,9.391,16.395c0,2.22-0.131,4.043-0.396,5.464l-13.492,2.666c0.705-3.286,1.059-5.866,1.059-7.73
		c0-4.353-1.941-8.085-5.818-11.198c-3.881-3.108-8.555-4.664-14.02-4.664c-4.588,0-8.379,1.152-11.375,3.461
		c-3,2.309-4.498,5.235-4.498,8.787c0,3.636,1.588,6.518,4.76,8.647l3.572,2.131c0.881,0.445,2.467,1.109,4.762,1.997
		c3.088,1.24,5.953,2.351,8.598,3.326c3.789,1.421,6.943,2.664,9.457,3.728c2.512,1.067,4.518,2.041,6.018,2.928
		c10.318,6.036,15.477,14.553,15.477,25.555c0,9.584-3.396,17.256-10.184,23.027c-6.793,5.768-15.83,8.652-27.115,8.652
		c-10.496,0-18.914-2.402-25.264-7.201c-6.348-4.799-9.524-11.194-9.524-19.191c0-1.333,0-2.666,0-4
		C728.763,68.021,728.937,66.955,729.024,66.242z"/>
</g>
</svg>
